<svg xmlns="http://www.w3.org/2000/svg" width="1100" height="1145" viewBox="0 0 1100 1145">
<rect width="100%" height="100%" fill="#fbfaf7"/>
<style>text{font-family:-apple-system,BlinkMacSystemFont,"Segoe UI",sans-serif;fill:#2b2b2b}.title{font-size:18px;font-weight:650}.axis{font-size:13px;fill:#555}.legend{font-size:13px}.note{font-size:12px;font-weight:600}.grid{stroke:#d8d5cf;stroke-width:1;opacity:.55}.frame{stroke:#777;stroke-width:1;fill:none}.zero{stroke:#555;stroke-width:1}</style>
<text class="title" x="92" y="54">1  Time-domain signal and estimated trend</text>
<line class="grid" x1="92.00" y1="78" x2="92.00" y2="260"/>
<text class="axis" text-anchor="middle" x="92.00" y="281">0</text>
<line class="grid" x1="228.86" y1="78" x2="228.86" y2="260"/>
<text class="axis" text-anchor="middle" x="228.86" y="281">2</text>
<line class="grid" x1="365.71" y1="78" x2="365.71" y2="260"/>
<text class="axis" text-anchor="middle" x="365.71" y="281">4</text>
<line class="grid" x1="502.57" y1="78" x2="502.57" y2="260"/>
<text class="axis" text-anchor="middle" x="502.57" y="281">6</text>
<line class="grid" x1="639.43" y1="78" x2="639.43" y2="260"/>
<text class="axis" text-anchor="middle" x="639.43" y="281">8</text>
<line class="grid" x1="776.29" y1="78" x2="776.29" y2="260"/>
<text class="axis" text-anchor="middle" x="776.29" y="281">10</text>
<line class="grid" x1="913.14" y1="78" x2="913.14" y2="260"/>
<text class="axis" text-anchor="middle" x="913.14" y="281">12</text>
<line class="grid" x1="1050.00" y1="78" x2="1050.00" y2="260"/>
<text class="axis" text-anchor="middle" x="1050.00" y="281">14</text>
<line class="grid" x1="92" y1="251.73" x2="1050" y2="251.73"/>
<text class="axis" text-anchor="end" x="82" y="255.73">45</text>
<line class="grid" x1="92" y1="210.36" x2="1050" y2="210.36"/>
<text class="axis" text-anchor="end" x="82" y="214.36">50</text>
<line class="grid" x1="92" y1="169.00" x2="1050" y2="169.00"/>
<text class="axis" text-anchor="end" x="82" y="173.00">55</text>
<line class="grid" x1="92" y1="127.64" x2="1050" y2="127.64"/>
<text class="axis" text-anchor="end" x="82" y="131.64">60</text>
<line class="grid" x1="92" y1="86.27" x2="1050" y2="86.27"/>
<text class="axis" text-anchor="end" x="82" y="90.27">65</text>
<rect class="frame" x="92" y="78" width="958" height="182"/>
<text class="axis" text-anchor="middle" x="571.0" y="303">time (days)</text>
<text class="axis" text-anchor="middle" transform="translate(24 169.0) rotate(-90)">value</text>
<path d="M92.00,202.40 L94.85,196.53 L97.70,177.47 L100.55,176.50 L103.40,199.57 L106.26,197.68 L109.11,185.83 L111.96,182.25 L114.81,173.88 L117.66,178.47 L120.51,174.63 L123.36,190.43 L126.21,212.90 L129.07,220.15 L131.92,231.23 L134.77,239.22 L137.62,226.66 L140.47,232.55 L143.32,222.28 L146.17,234.45 L149.02,241.23 L151.88,244.96 L154.73,224.25 L157.58,217.74 L160.43,201.29 L163.28,186.02 L166.13,172.95 L168.98,174.35 L171.83,177.97 L174.68,180.26 L177.54,166.54 L180.39,176.89 L183.24,171.21 L186.09,172.25 L188.94,170.41 L191.79,182.15 L194.64,208.13 L197.49,227.21 L200.35,233.82 L203.20,223.27 L206.05,218.23 L208.90,216.65 L211.75,226.55 L214.60,226.63 L217.45,233.28 L220.30,233.05 L223.15,220.62 L226.01,209.28 L228.86,188.01 L231.71,177.28 L234.56,168.61 L237.41,166.64 L240.26,184.39 L243.11,179.27 L245.96,177.87 L248.82,172.47 L251.67,163.68 L254.52,151.02 L257.37,174.26 L260.22,177.25 L263.07,212.56 L265.92,217.91 L268.77,221.33 L271.62,217.74 L274.48,212.48 L277.33,209.04 L280.18,218.49 L283.03,225.27 L285.88,222.42 L288.73,229.81 L291.58,228.87 L294.43,212.30 L297.29,192.63 L300.14,168.48 L302.99,163.62 L305.84,160.29 L308.69,171.62 L311.54,170.15 L314.39,164.66 L317.24,164.33 L320.10,152.88 L322.95,159.34 L325.80,164.98 L328.65,180.23 L331.50,203.38 L334.35,206.52 L337.20,219.56 L340.05,215.58 L342.90,208.05 L345.76,205.38 L348.61,205.82 L351.46,216.90 L354.31,224.94 L357.16,223.12 L360.01,225.64 L362.86,208.42 L365.71,189.34 L368.57,172.42 L371.42,155.96 L374.27,164.89 L377.12,165.34 L379.97,156.64 L382.82,165.21 L385.67,151.45 L388.52,156.12 L391.38,150.36 L394.23,162.91 L397.08,173.99 L399.93,183.95 L402.78,215.22 L405.63,207.62 L408.48,208.13 L411.33,209.21 L414.18,211.95 L417.04,203.79 L419.89,213.80 L422.74,214.64 L425.59,216.49 L428.44,197.91 L431.29,194.47 L434.14,181.41 L436.99,158.68 L439.85,151.19 L442.70,143.95 L445.55,151.35 L448.40,156.92 L451.25,147.21 L454.10,158.24 L456.95,148.22 L459.80,149.17 L462.65,153.24 L465.51,174.90 L468.36,179.35 L471.21,199.30 L474.06,214.28 L476.91,210.47 L479.76,197.24 L482.61,190.87 L485.46,185.10 L488.32,185.05 L491.17,207.48 L494.02,217.22 L496.87,216.67 L499.72,185.16 L502.57,174.06 L505.42,156.65 L508.27,150.74 L511.12,147.92 L513.98,143.87 L516.83,152.29 L519.68,151.99 L522.53,151.27 L525.38,149.12 L528.23,140.30 L531.08,145.06 L533.93,148.14 L536.79,176.73 L539.64,185.37 L542.49,201.89 L545.34,205.64 L548.19,199.75 L551.04,195.26 L553.89,178.27 L556.74,203.82 L559.60,198.72 L562.45,210.70 L565.30,190.44 L568.15,178.43 L571.00,163.76 L573.85,148.22 L576.70,145.07 L579.55,138.08 L582.40,147.98 L585.26,155.48 L588.11,153.44 L590.96,137.32 L593.81,121.63 L596.66,130.07 L599.51,139.54 L602.36,151.99 L605.21,163.00 L608.07,184.46 L610.92,195.35 L613.77,184.52 L616.62,184.57 L619.47,174.34 L622.32,185.19 L625.17,200.53 L628.02,207.37 L630.88,187.84 L633.73,179.24 L636.58,176.21 L639.43,159.30 L642.28,132.32 L645.13,142.11 L647.98,141.00 L650.83,134.75 L653.68,144.03 L656.54,139.06 L659.39,133.59 L662.24,123.89 L665.09,115.86 L667.94,132.20 L670.79,143.66 L673.64,179.25 L676.49,180.28 L679.35,192.25 L682.20,193.95 L685.05,187.26 L687.90,180.76 L690.75,174.38 L693.60,195.25 L696.45,192.15 L699.30,196.01 L702.15,186.86 L705.01,162.43 L707.86,147.25 L710.71,127.19 L713.56,129.85 L716.41,133.73 L719.26,134.54 L722.11,133.85 L724.96,131.90 L727.82,133.73 L730.67,119.57 L733.52,117.71 L736.37,110.18 L739.22,129.55 L742.07,165.37 L744.92,175.90 L747.77,190.40 L750.62,183.84 L753.48,173.41 L756.33,164.61 L759.18,179.32 L762.03,184.84 L764.88,200.61 L767.73,187.93 L770.58,185.76 L773.43,166.61 L776.29,150.65 L779.14,130.70 L781.99,134.50 L784.84,132.87 L787.69,113.01 L790.54,138.02 L793.39,134.37 L796.24,108.44 L799.10,94.98 L801.95,121.01 L804.80,123.32 L807.65,133.75 L810.50,142.33 L813.35,174.58 L816.20,176.38 L819.05,168.83 L821.90,166.66 L824.76,169.13 L827.61,169.42 L830.46,183.65 L833.31,182.02 L836.16,182.66 L839.01,171.24 L841.86,160.83 L844.71,135.77 L847.57,117.42 L850.42,115.88 L853.27,114.88 L856.12,120.79 L858.97,123.55 L861.82,125.93 L864.67,112.54 L867.52,108.90 L870.38,93.45 L873.23,104.51 L876.08,127.50 L878.93,152.86 L881.78,169.45 L884.63,160.92 L887.48,166.27 L890.33,160.40 L893.18,172.23 L896.04,156.44 L898.89,165.59 L901.74,181.84 L904.59,178.06 L907.44,165.07 L910.29,150.85 L913.14,134.87 L915.99,118.85 L918.85,112.62 L921.70,110.24 L924.55,105.45 L927.40,134.58 L930.25,116.76 L933.10,107.51 L935.95,100.34 L938.80,103.81 L941.65,120.60 L944.51,121.93 L947.36,130.43 L950.21,166.28 L953.06,157.13 L955.91,164.23 L958.76,158.03 L961.61,161.69 L964.46,158.83 L967.32,154.04 L970.17,164.67 L973.02,157.52 L975.87,153.07 L978.72,142.33 L981.57,115.44 L984.42,109.31 L987.27,99.52 L990.12,107.26 L992.98,108.79 L995.83,116.25 L998.68,102.69 L1001.53,110.52 L1004.38,91.16 L1007.23,96.65 L1010.08,95.26 L1012.93,113.17 L1015.79,123.85 L1018.64,145.34 L1021.49,167.30 L1024.34,156.54 L1027.19,159.42 L1030.04,152.20 L1032.89,140.66 L1035.74,152.47 L1038.60,167.20 L1041.45,169.73 L1044.30,154.69 L1047.15,147.33" fill="none" stroke="#4c78a8" stroke-width="1.25" opacity="0.9" stroke-linejoin="round"/>
<path d="M92.00,208.30 L94.85,208.06 L97.70,207.83 L100.55,207.59 L103.40,207.36 L106.26,207.12 L109.11,206.89 L111.96,206.65 L114.81,206.42 L117.66,206.18 L120.51,205.95 L123.36,205.71 L126.21,205.48 L129.07,205.24 L131.92,205.01 L134.77,204.77 L137.62,204.53 L140.47,204.30 L143.32,204.06 L146.17,203.83 L149.02,203.59 L151.88,203.36 L154.73,203.12 L157.58,202.89 L160.43,202.65 L163.28,202.42 L166.13,202.18 L168.98,201.95 L171.83,201.71 L174.68,201.48 L177.54,201.24 L180.39,201.01 L183.24,200.77 L186.09,200.54 L188.94,200.30 L191.79,200.06 L194.64,199.83 L197.49,199.59 L200.35,199.36 L203.20,199.12 L206.05,198.89 L208.90,198.65 L211.75,198.42 L214.60,198.18 L217.45,197.95 L220.30,197.71 L223.15,197.48 L226.01,197.24 L228.86,197.01 L231.71,196.77 L234.56,196.54 L237.41,196.30 L240.26,196.06 L243.11,195.83 L245.96,195.59 L248.82,195.36 L251.67,195.12 L254.52,194.89 L257.37,194.65 L260.22,194.42 L263.07,194.18 L265.92,193.95 L268.77,193.71 L271.62,193.48 L274.48,193.24 L277.33,193.01 L280.18,192.77 L283.03,192.54 L285.88,192.30 L288.73,192.07 L291.58,191.83 L294.43,191.59 L297.29,191.36 L300.14,191.12 L302.99,190.89 L305.84,190.65 L308.69,190.42 L311.54,190.18 L314.39,189.95 L317.24,189.71 L320.10,189.48 L322.95,189.24 L325.80,189.01 L328.65,188.77 L331.50,188.54 L334.35,188.30 L337.20,188.07 L340.05,187.83 L342.90,187.59 L345.76,187.36 L348.61,187.12 L351.46,186.89 L354.31,186.65 L357.16,186.42 L360.01,186.18 L362.86,185.95 L365.71,185.71 L368.57,185.48 L371.42,185.24 L374.27,185.01 L377.12,184.77 L379.97,184.54 L382.82,184.30 L385.67,184.07 L388.52,183.83 L391.38,183.60 L394.23,183.36 L397.08,183.12 L399.93,182.89 L402.78,182.65 L405.63,182.42 L408.48,182.18 L411.33,181.95 L414.18,181.71 L417.04,181.48 L419.89,181.24 L422.74,181.01 L425.59,180.77 L428.44,180.54 L431.29,180.30 L434.14,180.07 L436.99,179.83 L439.85,179.60 L442.70,179.36 L445.55,179.12 L448.40,178.89 L451.25,178.65 L454.10,178.42 L456.95,178.18 L459.80,177.95 L462.65,177.71 L465.51,177.48 L468.36,177.24 L471.21,177.01 L474.06,176.77 L476.91,176.54 L479.76,176.30 L482.61,176.07 L485.46,175.83 L488.32,175.60 L491.17,175.36 L494.02,175.13 L496.87,174.89 L499.72,174.65 L502.57,174.42 L505.42,174.18 L508.27,173.95 L511.12,173.71 L513.98,173.48 L516.83,173.24 L519.68,173.01 L522.53,172.77 L525.38,172.54 L528.23,172.30 L531.08,172.07 L533.93,171.83 L536.79,171.60 L539.64,171.36 L542.49,171.13 L545.34,170.89 L548.19,170.65 L551.04,170.42 L553.89,170.18 L556.74,169.95 L559.60,169.71 L562.45,169.48 L565.30,169.24 L568.15,169.01 L571.00,168.77 L573.85,168.54 L576.70,168.30 L579.55,168.07 L582.40,167.83 L585.26,167.60 L588.11,167.36 L590.96,167.13 L593.81,166.89 L596.66,166.66 L599.51,166.42 L602.36,166.18 L605.21,165.95 L608.07,165.71 L610.92,165.48 L613.77,165.24 L616.62,165.01 L619.47,164.77 L622.32,164.54 L625.17,164.30 L628.02,164.07 L630.88,163.83 L633.73,163.60 L636.58,163.36 L639.43,163.13 L642.28,162.89 L645.13,162.66 L647.98,162.42 L650.83,162.18 L653.68,161.95 L656.54,161.71 L659.39,161.48 L662.24,161.24 L665.09,161.01 L667.94,160.77 L670.79,160.54 L673.64,160.30 L676.49,160.07 L679.35,159.83 L682.20,159.60 L685.05,159.36 L687.90,159.13 L690.75,158.89 L693.60,158.66 L696.45,158.42 L699.30,158.19 L702.15,157.95 L705.01,157.71 L707.86,157.48 L710.71,157.24 L713.56,157.01 L716.41,156.77 L719.26,156.54 L722.11,156.30 L724.96,156.07 L727.82,155.83 L730.67,155.60 L733.52,155.36 L736.37,155.13 L739.22,154.89 L742.07,154.66 L744.92,154.42 L747.77,154.19 L750.62,153.95 L753.48,153.71 L756.33,153.48 L759.18,153.24 L762.03,153.01 L764.88,152.77 L767.73,152.54 L770.58,152.30 L773.43,152.07 L776.29,151.83 L779.14,151.60 L781.99,151.36 L784.84,151.13 L787.69,150.89 L790.54,150.66 L793.39,150.42 L796.24,150.19 L799.10,149.95 L801.95,149.72 L804.80,149.48 L807.65,149.24 L810.50,149.01 L813.35,148.77 L816.20,148.54 L819.05,148.30 L821.90,148.07 L824.76,147.83 L827.61,147.60 L830.46,147.36 L833.31,147.13 L836.16,146.89 L839.01,146.66 L841.86,146.42 L844.71,146.19 L847.57,145.95 L850.42,145.72 L853.27,145.48 L856.12,145.24 L858.97,145.01 L861.82,144.77 L864.67,144.54 L867.52,144.30 L870.38,144.07 L873.23,143.83 L876.08,143.60 L878.93,143.36 L881.78,143.13 L884.63,142.89 L887.48,142.66 L890.33,142.42 L893.18,142.19 L896.04,141.95 L898.89,141.72 L901.74,141.48 L904.59,141.25 L907.44,141.01 L910.29,140.77 L913.14,140.54 L915.99,140.30 L918.85,140.07 L921.70,139.83 L924.55,139.60 L927.40,139.36 L930.25,139.13 L933.10,138.89 L935.95,138.66 L938.80,138.42 L941.65,138.19 L944.51,137.95 L947.36,137.72 L950.21,137.48 L953.06,137.25 L955.91,137.01 L958.76,136.77 L961.61,136.54 L964.46,136.30 L967.32,136.07 L970.17,135.83 L973.02,135.60 L975.87,135.36 L978.72,135.13 L981.57,134.89 L984.42,134.66 L987.27,134.42 L990.12,134.19 L992.98,133.95 L995.83,133.72 L998.68,133.48 L1001.53,133.25 L1004.38,133.01 L1007.23,132.78 L1010.08,132.54 L1012.93,132.30 L1015.79,132.07 L1018.64,131.83 L1021.49,131.60 L1024.34,131.36 L1027.19,131.13 L1030.04,130.89 L1032.89,130.66 L1035.74,130.42 L1038.60,130.19 L1041.45,129.95 L1044.30,129.72 L1047.15,129.48" fill="none" stroke="#e45756" stroke-width="2.5" opacity="1.0" stroke-linejoin="round"/>
<line x1="830" y1="95" x2="862" y2="95" stroke="#4c78a8" stroke-width="2"/><text class="legend" x="870" y="99">observed</text>
<line x1="940" y1="95" x2="972" y2="95" stroke="#e45756" stroke-width="3"/><text class="legend" x="980" y="99">trend</text>
<text class="title" x="92" y="322">2  One-sided amplitude spectrum</text>
<line class="grid" x1="92.00" y1="346" x2="92.00" y2="528"/>
<text class="axis" text-anchor="middle" x="92.00" y="549">0.00</text>
<line class="grid" x1="331.50" y1="346" x2="331.50" y2="528"/>
<text class="axis" text-anchor="middle" x="331.50" y="549">0.05</text>
<line class="grid" x1="571.00" y1="346" x2="571.00" y2="528"/>
<text class="axis" text-anchor="middle" x="571.00" y="549">0.10</text>
<line class="grid" x1="810.50" y1="346" x2="810.50" y2="528"/>
<text class="axis" text-anchor="middle" x="810.50" y="549">0.15</text>
<line class="grid" x1="1050.00" y1="346" x2="1050.00" y2="528"/>
<text class="axis" text-anchor="middle" x="1050.00" y="549">0.20</text>
<line class="grid" x1="92" y1="528.00" x2="1050" y2="528.00"/>
<text class="axis" text-anchor="end" x="82" y="532.00">0</text>
<line class="grid" x1="92" y1="487.56" x2="1050" y2="487.56"/>
<text class="axis" text-anchor="end" x="82" y="491.56">1</text>
<line class="grid" x1="92" y1="447.11" x2="1050" y2="447.11"/>
<text class="axis" text-anchor="end" x="82" y="451.11">2</text>
<line class="grid" x1="92" y1="406.67" x2="1050" y2="406.67"/>
<text class="axis" text-anchor="end" x="82" y="410.67">3</text>
<line class="grid" x1="92" y1="366.22" x2="1050" y2="366.22"/>
<text class="axis" text-anchor="end" x="82" y="370.22">4</text>
<rect class="frame" x="92" y="346" width="958" height="182"/>
<text class="axis" text-anchor="middle" x="571.0" y="571">frequency (cycles/hour)</text>
<text class="axis" text-anchor="middle" transform="translate(24 437.0) rotate(-90)">amplitude</text>
<path d="M92.00,526.95 L106.26,521.06 L120.51,524.13 L134.77,524.97 L149.02,525.79 L163.28,524.35 L177.54,525.33 L191.79,523.65 L206.05,525.26 L220.30,524.06 L234.56,523.21 L248.82,524.09 L263.07,524.01 L277.33,445.88 L291.58,365.82 L305.84,450.08 L320.10,522.72 L334.35,523.93 L348.61,521.64 L362.86,524.09 L377.12,526.45 L391.38,521.55 L405.63,520.78 L419.89,524.62 L434.14,526.74 L448.40,525.55 L462.65,522.07 L476.91,519.94 L491.17,525.40 L505.42,523.47 L519.68,521.72 L533.93,523.80 L548.19,525.37 L562.45,524.85 L576.70,522.42 L590.96,523.74 L605.21,525.01 L619.47,520.28 L633.73,521.58 L647.98,523.23 L662.24,521.55 L676.49,500.14 L690.75,462.59 L705.01,490.09 L719.26,519.52 L733.52,521.96 L747.77,521.33 L762.03,522.31 L776.29,524.94 L790.54,524.30 L804.80,524.44 L819.05,524.01 L833.31,521.28 L847.57,522.38 L861.82,526.60 L876.08,525.34 L890.33,522.65 L904.59,520.38 L918.85,522.16 L933.10,525.52 L947.36,524.43 L961.61,522.54 L975.87,523.98 L990.12,526.37 L1004.38,521.87 L1018.64,520.92 L1032.89,523.86 L1047.15,526.81" fill="none" stroke="#4c78a8" stroke-width="1.7" opacity="1.0" stroke-linejoin="round"/>
<circle cx="291.58" cy="365.82" r="5" fill="#e45756"/>
<text class="note" x="300.58" y="357.82" fill="#a83232">24 h</text>
<circle cx="690.75" cy="462.59" r="5" fill="#e45756"/>
<text class="note" x="699.75" y="454.59" fill="#a83232">8 h</text>
<text class="title" x="92" y="590">3  Periodic component reconstructed by inverse FFT</text>
<line class="grid" x1="92.00" y1="614" x2="92.00" y2="796"/>
<text class="axis" text-anchor="middle" x="92.00" y="817">0</text>
<line class="grid" x1="228.86" y1="614" x2="228.86" y2="796"/>
<text class="axis" text-anchor="middle" x="228.86" y="817">2</text>
<line class="grid" x1="365.71" y1="614" x2="365.71" y2="796"/>
<text class="axis" text-anchor="middle" x="365.71" y="817">4</text>
<line class="grid" x1="502.57" y1="614" x2="502.57" y2="796"/>
<text class="axis" text-anchor="middle" x="502.57" y="817">6</text>
<line class="grid" x1="639.43" y1="614" x2="639.43" y2="796"/>
<text class="axis" text-anchor="middle" x="639.43" y="817">8</text>
<line class="grid" x1="776.29" y1="614" x2="776.29" y2="796"/>
<text class="axis" text-anchor="middle" x="776.29" y="817">10</text>
<line class="grid" x1="913.14" y1="614" x2="913.14" y2="796"/>
<text class="axis" text-anchor="middle" x="913.14" y="817">12</text>
<line class="grid" x1="1050.00" y1="614" x2="1050.00" y2="796"/>
<text class="axis" text-anchor="middle" x="1050.00" y="817">14</text>
<line class="grid" x1="92" y1="783.00" x2="1050" y2="783.00"/>
<text class="axis" text-anchor="end" x="82" y="787.00">-6</text>
<line class="grid" x1="92" y1="744.00" x2="1050" y2="744.00"/>
<text class="axis" text-anchor="end" x="82" y="748.00">-3</text>
<line class="grid" x1="92" y1="705.00" x2="1050" y2="705.00"/>
<text class="axis" text-anchor="end" x="82" y="709.00">0</text>
<line class="grid" x1="92" y1="666.00" x2="1050" y2="666.00"/>
<text class="axis" text-anchor="end" x="82" y="670.00">3</text>
<line class="grid" x1="92" y1="627.00" x2="1050" y2="627.00"/>
<text class="axis" text-anchor="end" x="82" y="631.00">6</text>
<rect class="frame" x="92" y="614" width="958" height="182"/>
<text class="axis" text-anchor="middle" x="571.0" y="839">time (days)</text>
<text class="axis" text-anchor="middle" transform="translate(24 705.0) rotate(-90)">detrended value</text>
<path d="M92.00,695.73 L94.85,686.87 L97.70,657.29 L100.55,656.14 L103.40,692.77 L106.26,690.17 L109.11,671.91 L111.96,666.65 L114.81,653.87 L117.66,661.45 L120.51,655.78 L123.36,680.98 L126.21,716.66 L129.07,728.43 L131.92,746.21 L134.77,759.14 L137.62,739.77 L140.47,749.39 L143.32,733.63 L146.17,753.12 L149.02,764.14 L151.88,770.38 L154.73,738.20 L157.58,728.33 L160.43,702.86 L163.28,679.23 L166.13,659.07 L168.98,661.64 L171.83,667.70 L174.68,671.66 L177.54,650.48 L180.39,667.10 L183.24,658.54 L186.09,660.56 L188.94,658.04 L191.79,676.84 L194.64,718.05 L197.49,748.40 L200.35,759.16 L203.20,742.95 L206.05,735.39 L208.90,733.28 L211.75,749.20 L214.60,749.70 L217.45,760.52 L220.30,760.54 L223.15,741.36 L226.01,723.91 L228.86,690.86 L231.71,674.38 L234.56,661.11 L237.41,658.38 L240.26,686.66 L243.11,678.98 L245.96,677.15 L248.82,669.03 L251.67,655.59 L254.52,636.06 L257.37,672.96 L260.22,678.03 L263.07,733.88 L265.92,742.66 L268.77,748.41 L271.62,743.13 L274.48,735.23 L277.33,730.19 L280.18,745.42 L283.03,756.43 L285.88,752.32 L288.73,764.32 L291.58,763.20 L294.43,737.54 L297.29,707.00 L300.14,669.42 L302.99,662.15 L305.84,657.28 L308.69,675.46 L311.54,673.52 L314.39,665.27 L317.24,665.12 L320.10,647.49 L322.95,658.00 L325.80,667.24 L328.65,691.58 L331.50,728.33 L334.35,733.63 L337.20,754.49 L340.05,748.61 L342.90,737.14 L345.76,733.31 L348.61,734.39 L351.46,752.16 L354.31,765.16 L357.16,762.67 L360.01,767.00 L362.86,740.32 L365.71,710.70 L368.57,684.48 L371.42,658.99 L374.27,673.39 L377.12,674.46 L379.97,661.17 L382.82,674.99 L385.67,653.75 L388.52,661.46 L391.38,652.77 L394.23,672.86 L397.08,690.65 L399.93,706.66 L402.78,756.17 L405.63,744.61 L408.48,745.78 L411.33,747.84 L414.18,752.51 L417.04,740.07 L419.89,756.16 L422.74,757.85 L425.59,761.12 L428.44,732.31 L431.29,727.27 L434.14,707.11 L436.99,671.76 L439.85,660.37 L442.70,649.35 L445.55,661.36 L448.40,670.48 L451.25,655.58 L454.10,673.29 L456.95,657.92 L459.80,659.78 L462.65,666.55 L465.51,700.96 L468.36,708.31 L471.21,740.03 L474.06,763.94 L476.91,758.33 L479.76,737.91 L482.61,728.27 L485.46,719.57 L488.32,719.86 L491.17,755.48 L494.02,771.16 L496.87,770.65 L499.72,721.51 L502.57,704.43 L505.42,677.45 L508.27,668.54 L511.12,664.47 L513.98,658.47 L516.83,672.07 L519.68,671.96 L522.53,671.21 L525.38,668.20 L528.23,654.72 L531.08,662.57 L533.93,667.77 L536.79,713.07 L539.64,727.01 L542.49,753.35 L545.34,759.60 L548.19,750.72 L551.04,744.04 L553.89,717.71 L556.74,758.22 L559.60,750.58 L562.45,769.77 L565.30,738.30 L568.15,719.80 L571.00,697.12 L573.85,673.07 L576.70,668.49 L579.55,657.88 L582.40,673.80 L585.26,685.97 L588.11,683.12 L590.96,658.16 L593.81,633.87 L596.66,647.51 L599.51,662.76 L602.36,682.69 L605.21,700.36 L608.07,734.46 L610.92,751.94 L613.77,735.29 L616.62,735.74 L619.47,720.04 L622.32,737.45 L625.17,761.92 L628.02,773.04 L630.88,742.72 L633.73,729.58 L636.58,725.19 L639.43,698.99 L642.28,656.96 L645.13,672.71 L647.98,671.34 L650.83,661.89 L653.68,676.84 L656.54,669.40 L659.39,661.17 L662.24,646.30 L665.09,634.05 L667.94,660.09 L670.79,678.48 L673.64,734.78 L676.49,736.76 L679.35,755.95 L682.20,758.98 L685.05,748.84 L687.90,739.00 L690.75,729.35 L693.60,762.50 L696.45,758.01 L699.30,764.44 L702.15,750.43 L705.01,712.40 L707.86,688.92 L710.71,657.76 L713.56,662.32 L716.41,668.78 L719.26,670.43 L722.11,669.72 L724.96,667.02 L727.82,670.26 L730.67,648.38 L733.52,645.83 L736.37,634.37 L739.22,665.17 L742.07,721.84 L744.92,738.76 L747.77,761.91 L750.62,751.96 L753.48,735.94 L756.33,722.50 L759.18,745.97 L762.03,755.02 L764.88,780.17 L767.73,760.61 L770.58,757.58 L773.43,727.85 L776.29,703.15 L779.14,672.17 L781.99,678.50 L784.84,676.31 L787.69,645.47 L790.54,685.15 L793.39,679.78 L796.24,639.39 L799.10,618.62 L801.95,659.90 L804.80,663.89 L807.65,680.65 L810.50,694.50 L813.35,745.55 L816.20,748.76 L819.05,737.25 L821.90,734.22 L824.76,738.46 L827.61,739.29 L830.46,762.03 L833.31,759.83 L836.16,761.20 L839.01,743.63 L841.86,727.63 L844.71,688.64 L847.57,660.17 L850.42,658.12 L853.27,656.91 L856.12,666.57 L858.97,671.27 L861.82,675.39 L864.67,654.72 L867.52,649.36 L870.38,625.46 L873.23,643.21 L876.08,679.71 L878.93,719.93 L881.78,746.37 L884.63,733.33 L887.48,742.11 L890.33,733.26 L893.18,752.21 L896.04,727.77 L898.89,742.52 L901.74,768.42 L904.59,762.85 L907.44,742.81 L910.29,720.83 L913.14,696.09 L915.99,671.29 L918.85,661.87 L921.70,658.50 L924.55,651.33 L927.40,697.48 L930.25,669.86 L933.10,655.69 L935.95,644.78 L938.80,650.61 L941.65,677.36 L944.51,679.82 L947.36,693.54 L950.21,750.26 L953.06,736.25 L955.91,747.78 L958.76,738.40 L961.61,744.53 L964.46,740.40 L967.32,733.24 L970.17,750.32 L973.02,739.44 L975.87,732.83 L978.72,716.32 L981.57,674.43 L984.42,665.16 L987.27,650.15 L990.12,662.68 L992.98,665.46 L995.83,677.55 L998.68,656.62 L1001.53,669.29 L1004.38,639.24 L1007.23,648.24 L1010.08,646.42 L1012.93,674.94 L1015.79,692.09 L1018.64,726.22 L1021.49,761.10 L1024.34,744.57 L1027.19,749.47 L1030.04,738.48 L1032.89,720.72 L1035.74,739.64 L1038.60,763.16 L1041.45,767.51 L1044.30,744.24 L1047.15,733.05" fill="none" stroke="#72b7b2" stroke-width="1.0" opacity="0.48" stroke-linejoin="round"/>
<path d="M92.00,696.36 L94.85,672.30 L97.70,660.68 L100.55,661.78 L103.40,669.34 L106.26,674.59 L109.11,671.71 L111.96,661.39 L114.81,650.53 L117.66,648.12 L120.51,659.80 L123.36,684.26 L126.21,713.64 L129.07,737.70 L131.92,749.32 L134.77,748.22 L137.62,740.66 L140.47,735.41 L143.32,738.29 L146.17,748.61 L149.02,759.47 L151.88,761.88 L154.73,750.20 L157.58,725.74 L160.43,696.36 L163.28,672.30 L166.13,660.68 L168.98,661.78 L171.83,669.34 L174.68,674.59 L177.54,671.71 L180.39,661.39 L183.24,650.53 L186.09,648.12 L188.94,659.80 L191.79,684.26 L194.64,713.64 L197.49,737.70 L200.35,749.32 L203.20,748.22 L206.05,740.66 L208.90,735.41 L211.75,738.29 L214.60,748.61 L217.45,759.47 L220.30,761.88 L223.15,750.20 L226.01,725.74 L228.86,696.36 L231.71,672.30 L234.56,660.68 L237.41,661.78 L240.26,669.34 L243.11,674.59 L245.96,671.71 L248.82,661.39 L251.67,650.53 L254.52,648.12 L257.37,659.80 L260.22,684.26 L263.07,713.64 L265.92,737.70 L268.77,749.32 L271.62,748.22 L274.48,740.66 L277.33,735.41 L280.18,738.29 L283.03,748.61 L285.88,759.47 L288.73,761.88 L291.58,750.20 L294.43,725.74 L297.29,696.36 L300.14,672.30 L302.99,660.68 L305.84,661.78 L308.69,669.34 L311.54,674.59 L314.39,671.71 L317.24,661.39 L320.10,650.53 L322.95,648.12 L325.80,659.80 L328.65,684.26 L331.50,713.64 L334.35,737.70 L337.20,749.32 L340.05,748.22 L342.90,740.66 L345.76,735.41 L348.61,738.29 L351.46,748.61 L354.31,759.47 L357.16,761.88 L360.01,750.20 L362.86,725.74 L365.71,696.36 L368.57,672.30 L371.42,660.68 L374.27,661.78 L377.12,669.34 L379.97,674.59 L382.82,671.71 L385.67,661.39 L388.52,650.53 L391.38,648.12 L394.23,659.80 L397.08,684.26 L399.93,713.64 L402.78,737.70 L405.63,749.32 L408.48,748.22 L411.33,740.66 L414.18,735.41 L417.04,738.29 L419.89,748.61 L422.74,759.47 L425.59,761.88 L428.44,750.20 L431.29,725.74 L434.14,696.36 L436.99,672.30 L439.85,660.68 L442.70,661.78 L445.55,669.34 L448.40,674.59 L451.25,671.71 L454.10,661.39 L456.95,650.53 L459.80,648.12 L462.65,659.80 L465.51,684.26 L468.36,713.64 L471.21,737.70 L474.06,749.32 L476.91,748.22 L479.76,740.66 L482.61,735.41 L485.46,738.29 L488.32,748.61 L491.17,759.47 L494.02,761.88 L496.87,750.20 L499.72,725.74 L502.57,696.36 L505.42,672.30 L508.27,660.68 L511.12,661.78 L513.98,669.34 L516.83,674.59 L519.68,671.71 L522.53,661.39 L525.38,650.53 L528.23,648.12 L531.08,659.80 L533.93,684.26 L536.79,713.64 L539.64,737.70 L542.49,749.32 L545.34,748.22 L548.19,740.66 L551.04,735.41 L553.89,738.29 L556.74,748.61 L559.60,759.47 L562.45,761.88 L565.30,750.20 L568.15,725.74 L571.00,696.36 L573.85,672.30 L576.70,660.68 L579.55,661.78 L582.40,669.34 L585.26,674.59 L588.11,671.71 L590.96,661.39 L593.81,650.53 L596.66,648.12 L599.51,659.80 L602.36,684.26 L605.21,713.64 L608.07,737.70 L610.92,749.32 L613.77,748.22 L616.62,740.66 L619.47,735.41 L622.32,738.29 L625.17,748.61 L628.02,759.47 L630.88,761.88 L633.73,750.20 L636.58,725.74 L639.43,696.36 L642.28,672.30 L645.13,660.68 L647.98,661.78 L650.83,669.34 L653.68,674.59 L656.54,671.71 L659.39,661.39 L662.24,650.53 L665.09,648.12 L667.94,659.80 L670.79,684.26 L673.64,713.64 L676.49,737.70 L679.35,749.32 L682.20,748.22 L685.05,740.66 L687.90,735.41 L690.75,738.29 L693.60,748.61 L696.45,759.47 L699.30,761.88 L702.15,750.20 L705.01,725.74 L707.86,696.36 L710.71,672.30 L713.56,660.68 L716.41,661.78 L719.26,669.34 L722.11,674.59 L724.96,671.71 L727.82,661.39 L730.67,650.53 L733.52,648.12 L736.37,659.80 L739.22,684.26 L742.07,713.64 L744.92,737.70 L747.77,749.32 L750.62,748.22 L753.48,740.66 L756.33,735.41 L759.18,738.29 L762.03,748.61 L764.88,759.47 L767.73,761.88 L770.58,750.20 L773.43,725.74 L776.29,696.36 L779.14,672.30 L781.99,660.68 L784.84,661.78 L787.69,669.34 L790.54,674.59 L793.39,671.71 L796.24,661.39 L799.10,650.53 L801.95,648.12 L804.80,659.80 L807.65,684.26 L810.50,713.64 L813.35,737.70 L816.20,749.32 L819.05,748.22 L821.90,740.66 L824.76,735.41 L827.61,738.29 L830.46,748.61 L833.31,759.47 L836.16,761.88 L839.01,750.20 L841.86,725.74 L844.71,696.36 L847.57,672.30 L850.42,660.68 L853.27,661.78 L856.12,669.34 L858.97,674.59 L861.82,671.71 L864.67,661.39 L867.52,650.53 L870.38,648.12 L873.23,659.80 L876.08,684.26 L878.93,713.64 L881.78,737.70 L884.63,749.32 L887.48,748.22 L890.33,740.66 L893.18,735.41 L896.04,738.29 L898.89,748.61 L901.74,759.47 L904.59,761.88 L907.44,750.20 L910.29,725.74 L913.14,696.36 L915.99,672.30 L918.85,660.68 L921.70,661.78 L924.55,669.34 L927.40,674.59 L930.25,671.71 L933.10,661.39 L935.95,650.53 L938.80,648.12 L941.65,659.80 L944.51,684.26 L947.36,713.64 L950.21,737.70 L953.06,749.32 L955.91,748.22 L958.76,740.66 L961.61,735.41 L964.46,738.29 L967.32,748.61 L970.17,759.47 L973.02,761.88 L975.87,750.20 L978.72,725.74 L981.57,696.36 L984.42,672.30 L987.27,660.68 L990.12,661.78 L992.98,669.34 L995.83,674.59 L998.68,671.71 L1001.53,661.39 L1004.38,650.53 L1007.23,648.12 L1010.08,659.80 L1012.93,684.26 L1015.79,713.64 L1018.64,737.70 L1021.49,749.32 L1024.34,748.22 L1027.19,740.66 L1030.04,735.41 L1032.89,738.29 L1035.74,748.61 L1038.60,759.47 L1041.45,761.88 L1044.30,750.20 L1047.15,725.74" fill="none" stroke="#f58518" stroke-width="2.0" opacity="1.0" stroke-linejoin="round"/>
<line x1="728" y1="631" x2="760" y2="631" stroke="#72b7b2" opacity=".6" stroke-width="2"/><text class="legend" x="768" y="635">detrended signal</text>
<line x1="890" y1="631" x2="922" y2="631" stroke="#f58518" stroke-width="3"/><text class="legend" x="930" y="635">reconstruction</text>
<text class="title" x="92" y="858">4  Residual after removing trend and selected cycles</text>
<line class="grid" x1="92.00" y1="882" x2="92.00" y2="1064"/>
<text class="axis" text-anchor="middle" x="92.00" y="1085">0</text>
<line class="grid" x1="228.86" y1="882" x2="228.86" y2="1064"/>
<text class="axis" text-anchor="middle" x="228.86" y="1085">2</text>
<line class="grid" x1="365.71" y1="882" x2="365.71" y2="1064"/>
<text class="axis" text-anchor="middle" x="365.71" y="1085">4</text>
<line class="grid" x1="502.57" y1="882" x2="502.57" y2="1064"/>
<text class="axis" text-anchor="middle" x="502.57" y="1085">6</text>
<line class="grid" x1="639.43" y1="882" x2="639.43" y2="1064"/>
<text class="axis" text-anchor="middle" x="639.43" y="1085">8</text>
<line class="grid" x1="776.29" y1="882" x2="776.29" y2="1064"/>
<text class="axis" text-anchor="middle" x="776.29" y="1085">10</text>
<line class="grid" x1="913.14" y1="882" x2="913.14" y2="1064"/>
<text class="axis" text-anchor="middle" x="913.14" y="1085">12</text>
<line class="grid" x1="1050.00" y1="882" x2="1050.00" y2="1064"/>
<text class="axis" text-anchor="middle" x="1050.00" y="1085">14</text>
<line class="grid" x1="92" y1="1025.00" x2="1050" y2="1025.00"/>
<text class="axis" text-anchor="end" x="82" y="1029.00">-2</text>
<line class="grid" x1="92" y1="973.00" x2="1050" y2="973.00"/>
<text class="axis" text-anchor="end" x="82" y="977.00">0</text>
<line class="grid" x1="92" y1="921.00" x2="1050" y2="921.00"/>
<text class="axis" text-anchor="end" x="82" y="925.00">2</text>
<rect class="frame" x="92" y="882" width="958" height="182"/>
<text class="axis" text-anchor="middle" x="571.0" y="1107">time (days)</text>
<text class="axis" text-anchor="middle" transform="translate(24 973.0) rotate(-90)">residual</text>
<line class="zero" x1="92" y1="973.00" x2="1050" y2="973.00"/>
<path d="M92.00,971.74 L94.85,1002.15 L97.70,966.22 L100.55,961.73 L103.40,1019.86 L106.26,1004.15 L109.11,973.39 L111.96,983.52 L114.81,979.68 L117.66,999.66 L120.51,964.97 L123.36,966.45 L126.21,979.04 L129.07,954.45 L131.92,966.77 L134.77,994.83 L137.62,971.21 L140.47,1000.96 L143.32,963.68 L146.17,982.02 L149.02,982.36 L151.88,990.01 L154.73,948.99 L157.58,978.18 L160.43,986.01 L163.28,986.86 L166.13,969.79 L168.98,972.72 L171.83,969.72 L174.68,967.13 L177.54,930.53 L180.39,984.42 L183.24,989.01 L186.09,997.87 L188.94,969.48 L191.79,958.18 L194.64,981.81 L197.49,994.40 L200.35,992.67 L203.20,962.45 L206.05,962.45 L208.90,968.75 L211.75,994.82 L214.60,975.18 L217.45,975.11 L220.30,970.32 L223.15,955.32 L226.01,969.34 L228.86,962.01 L231.71,977.16 L234.56,973.87 L237.41,966.22 L240.26,1007.64 L243.11,981.77 L245.96,983.89 L248.82,988.28 L251.67,983.11 L254.52,948.87 L257.37,999.32 L260.22,960.55 L263.07,1013.47 L265.92,982.91 L268.77,971.16 L271.62,962.81 L274.48,962.14 L277.33,962.57 L280.18,987.26 L283.03,988.65 L285.88,958.72 L288.73,977.88 L291.58,999.00 L294.43,996.59 L297.29,994.28 L300.14,967.25 L302.99,975.95 L305.84,964.01 L308.69,985.25 L311.54,970.85 L314.39,960.12 L317.24,980.46 L320.10,966.91 L322.95,992.76 L325.80,987.89 L328.65,987.65 L331.50,1002.37 L334.35,964.85 L337.20,983.34 L340.05,973.77 L342.90,965.96 L345.76,968.81 L348.61,965.19 L351.46,980.11 L354.31,984.39 L357.16,974.58 L360.01,1006.59 L362.86,1002.14 L365.71,1001.69 L368.57,997.36 L371.42,969.62 L374.27,996.23 L377.12,983.25 L379.97,946.15 L382.82,979.57 L385.67,957.71 L388.52,994.86 L391.38,982.30 L394.23,999.13 L397.08,985.79 L399.93,959.04 L402.78,1009.93 L405.63,963.57 L408.48,968.12 L411.33,987.35 L414.18,1007.20 L417.04,976.56 L419.89,988.10 L422.74,969.78 L425.59,971.50 L428.44,937.21 L431.29,976.05 L434.14,994.50 L436.99,971.92 L439.85,972.39 L442.70,948.15 L445.55,957.04 L448.40,964.77 L451.25,940.74 L454.10,996.80 L456.95,987.77 L459.80,996.32 L462.65,986.50 L465.51,1006.40 L468.36,962.34 L471.21,977.65 L474.06,1002.22 L476.91,993.21 L479.76,967.50 L482.61,958.72 L485.46,935.56 L488.32,915.51 L491.17,965.02 L494.02,991.56 L496.87,1013.90 L499.72,964.53 L502.57,989.14 L505.42,983.31 L508.27,988.72 L511.12,978.38 L513.98,951.27 L516.83,967.96 L519.68,973.51 L522.53,992.64 L525.38,1008.32 L528.23,986.19 L531.08,978.54 L533.93,940.02 L536.79,971.87 L539.64,951.61 L542.49,981.04 L545.34,995.76 L548.19,993.12 L551.04,990.26 L553.89,931.84 L556.74,992.23 L559.60,955.23 L562.45,988.78 L565.30,949.20 L568.15,961.12 L571.00,974.52 L573.85,974.55 L576.70,988.64 L579.55,965.20 L582.40,981.93 L585.26,995.74 L588.11,995.82 L590.96,966.54 L593.81,939.67 L596.66,971.77 L599.51,978.92 L602.36,969.87 L605.21,946.44 L608.07,966.52 L610.92,978.23 L613.77,947.13 L616.62,963.15 L619.47,942.26 L622.32,971.33 L625.17,999.64 L628.02,1000.15 L630.88,934.69 L633.73,931.75 L636.58,971.89 L639.43,978.26 L642.28,942.33 L645.13,997.07 L647.98,992.12 L650.83,958.11 L653.68,977.49 L656.54,968.37 L659.39,972.55 L662.24,964.52 L665.09,944.85 L667.94,973.59 L670.79,961.45 L673.64,1015.27 L676.49,971.12 L679.35,986.25 L682.20,994.52 L685.05,989.36 L687.90,980.18 L690.75,955.12 L693.60,1000.78 L696.45,970.09 L699.30,978.13 L702.15,973.45 L705.01,946.32 L707.86,958.12 L710.71,943.94 L713.56,976.28 L716.41,987.01 L719.26,975.18 L722.11,963.26 L724.96,963.62 L727.82,990.74 L730.67,968.69 L733.52,968.41 L736.37,922.14 L739.22,934.83 L742.07,989.40 L744.92,975.11 L747.77,998.18 L750.62,980.48 L753.48,963.56 L756.33,947.18 L759.18,988.36 L762.03,985.83 L764.88,1014.41 L767.73,970.47 L770.58,987.75 L773.43,977.22 L776.29,986.58 L779.14,972.74 L781.99,1008.66 L784.84,1002.07 L787.69,925.26 L790.54,994.11 L793.39,989.13 L796.24,929.00 L799.10,909.17 L801.95,996.55 L804.80,981.19 L807.65,965.79 L810.50,934.72 L813.35,988.69 L816.20,971.86 L819.05,951.05 L821.90,960.11 L824.76,979.11 L827.61,975.00 L830.46,999.84 L833.31,973.73 L836.16,971.65 L839.01,959.85 L841.86,976.78 L844.71,957.56 L847.57,948.74 L850.42,967.89 L853.27,963.27 L856.12,967.47 L858.97,966.36 L861.82,980.35 L864.67,959.65 L867.52,970.65 L870.38,927.67 L873.23,939.83 L876.08,963.90 L878.93,985.58 L881.78,990.33 L884.63,941.01 L887.48,960.78 L890.33,958.19 L893.18,1006.60 L896.04,951.96 L898.89,960.82 L901.74,990.90 L904.59,974.94 L907.44,958.22 L910.29,963.17 L913.14,972.47 L915.99,970.99 L918.85,975.39 L921.70,966.44 L924.55,936.99 L927.40,1018.77 L930.25,969.29 L933.10,961.59 L935.95,961.49 L938.80,977.97 L941.65,1008.12 L944.51,964.13 L947.36,932.81 L950.21,998.12 L953.06,946.85 L955.91,972.11 L958.76,968.48 L961.61,991.24 L964.46,977.23 L967.32,942.26 L970.17,954.71 L973.02,928.13 L975.87,938.25 L978.72,954.15 L981.57,929.15 L984.42,958.73 L987.27,951.96 L990.12,974.81 L992.98,965.24 L995.83,978.92 L998.68,942.81 L1001.53,988.80 L1004.38,950.40 L1007.23,973.23 L1010.08,946.25 L1012.93,954.36 L1015.79,929.89 L1018.64,950.04 L1021.49,996.54 L1024.34,965.69 L1027.19,990.61 L1030.04,979.15 L1032.89,937.87 L1035.74,955.07 L1038.60,980.39 L1041.45,984.28 L1044.30,961.08 L1047.15,987.62" fill="none" stroke="#54a24b" stroke-width="1.2" opacity="1.0" stroke-linejoin="round"/>
</svg>